<?xml version="1.0" encoding="utf-8"?>
<!-- Generator: Adobe Illustrator 23.0.3, SVG Export Plug-In . SVG Version: 6.00 Build 0)  -->
<svg version="1.1" id="Layer_1" xmlns="http://www.w3.org/2000/svg" xmlns:xlink="http://www.w3.org/1999/xlink" x="0px" y="0px"
	 viewBox="0 0 512 512" style="enable-background:new 0 0 512 512;" xml:space="preserve">
<style type="text/css">
	.st0{fill:#1D1D1B;}
</style>
<path class="st0" d="M495,223h-81.6C405.3,151.2,344.9,95,271,95c-49.8,0-93.8,25.5-119.6,64H47c-8.8,0-16,7.2-16,16s7.2,16,16,16
	h88.8c-3.6,10.2-6,20.9-7.2,32H79c-8.8,0-16,7.2-16,16s7.2,16,16,16h49.6c1.2,11.1,3.6,21.8,7.2,32H49.9c-10.5,0-18.9,7.2-18.9,16
	s8.5,16,18.9,16h101.5c25.9,38.6,69.8,64,119.6,64c49.8,0,93.8-25.4,119.6-64h37.5c10.5,0,18.9-7.2,18.9-16s-8.5-16-18.9-16h-21.9
	c3.6-10.2,6-20.9,7.2-32H495c8.8,0,16-7.2,16-16S503.8,223,495,223z M170.2,191H271c8.8,0,16-7.2,16-16s-7.2-16-16-16h-78.1
	c20.2-19.7,47.7-32,78.1-32c56.3,0,102.5,41.9,110.4,96H160.6C162.3,211.7,165.5,201,170.2,191z M271,351c-30.4,0-57.9-12.3-78.1-32
	h156.3C328.9,338.7,301.4,351,271,351z M371.8,287H170.2c-4.8-10-8-20.7-9.6-32h220.8C379.8,266.3,376.5,277,371.8,287z"/>
</svg>
