<?xml version="1.0" encoding="utf-8"?>
<!-- Generator: Adobe Illustrator 23.0.3, SVG Export Plug-In . SVG Version: 6.00 Build 0)  -->
<svg version="1.1" id="Layer_1" xmlns="http://www.w3.org/2000/svg" xmlns:xlink="http://www.w3.org/1999/xlink" x="0px" y="0px"
	 viewBox="0 0 512 512" style="enable-background:new 0 0 512 512;" xml:space="preserve">
<style type="text/css">
	.st0{fill-rule:evenodd;clip-rule:evenodd;fill:#1D1D1B;}
</style>
<g>
	<g>
		<path class="st0" d="M33.6,256c-1-5.2-1.6-10.5-1.6-16c0-44.2,35.8-80,80-80c10.8,0,21.1,2.2,30.4,6.1
			C163.7,124.7,206.3,96,256,96s92.3,28.7,113.5,70.1c9.4-3.9,19.7-6.1,30.5-6.1c44.2,0,80,35.8,80,80c0,5.5-0.6,10.8-1.6,16h32
			c0.8-5.3,1.6-10.5,1.6-16c0-61.8-50.3-112-112-112c-5.3,0-10.6,0.4-15.8,1.1C354.3,88.4,307.2,64,256,64s-98.3,24.4-128.2,65.1
			c-5.2-0.8-10.5-1.1-15.8-1.1C50.3,128,0,178.2,0,240c0,5.5,0.9,10.7,1.6,16H33.6z M496,288H16c-8.8,0-16,7.2-16,16s7.2,16,16,16
			h480c8.8,0,16-7.2,16-16S504.8,288,496,288z M496,352H16c-8.8,0-16,7.2-16,16s7.2,16,16,16h480c8.8,0,16-7.2,16-16
			S504.8,352,496,352z M496,416H16c-8.8,0-16,7.2-16,16s7.2,16,16,16h480c8.8,0,16-7.2,16-16S504.8,416,496,416z"/>
	</g>
</g>
</svg>
